<svg width="21" height="23" viewBox="0 0 21 23" fill="none" xmlns="http://www.w3.org/2000/svg">
<path d="M8.12234 4.73657C9.32018 4.73657 10.2905 3.78636 10.2905 2.6134C10.2905 1.44044 9.32018 0.490234 8.12234 0.490234C6.92451 0.490234 5.95416 1.44044 5.95416 2.6134C5.95416 3.78354 6.92451 4.73657 8.12234 4.73657Z" fill="white"/>
<path d="M14.0245 13.4124L10.5289 12.2648C10.5807 12.0844 10.6095 11.8955 10.6095 11.7009V9.92455L12.2364 11.7658C12.3832 11.9321 12.5934 12.0195 12.8036 12.0195C12.9476 12.0195 13.0944 11.9801 13.2211 11.8955L15.9681 10.0909L16.3827 10.7394L17.4567 10.0796L15.7521 7.42074L14.6781 8.08053L15.1705 8.85028C15.1561 8.85874 15.1417 8.86156 15.1302 8.87284L12.9332 10.3165L10.6037 7.68014V7.65476C10.6037 6.50154 9.64777 5.56543 8.4701 5.56543H7.75888C6.5812 5.56543 5.62524 6.50154 5.62524 7.65476V11.7065C5.62524 12.8598 6.5812 13.7959 7.75888 13.7959H8.07562L12.3602 15.2029L11.2343 20.7716C11.1134 21.3694 11.5107 21.9502 12.1212 22.0686C12.196 22.0827 12.268 22.0912 12.34 22.0912C12.8669 22.0912 13.3392 21.7275 13.4457 21.2002L14.7645 14.6784C14.8796 14.1286 14.56 13.5901 14.0245 13.4124Z" fill="white"/>
<path d="M19.1479 9.95611L15.5539 12.1667L16.6811 13.9241L20.2751 11.7134L19.1479 9.95611Z" fill="white"/>
<path d="M15.3983 4.13089L11.8051 6.34277L12.933 8.09967L16.5262 5.88779L15.3983 4.13089Z" fill="white"/>
<path d="M8.39832 14.3318H1.18541C0.718949 14.3318 0.338867 14.704 0.338867 15.1608C0.338867 15.6175 0.71607 15.9897 1.18541 15.9897H3.94675V21.4964C3.94675 21.9532 4.32683 22.3254 4.7933 22.3254C5.25976 22.3254 5.63984 21.956 5.63984 21.4964V15.9869H8.4012C8.86766 15.9869 9.24774 15.6175 9.24774 15.1579C9.24199 14.704 8.86478 14.3318 8.39832 14.3318Z" fill="white"/>
</svg>
