<svg width="34" height="34" viewBox="0 0 34 34" fill="none" xmlns="http://www.w3.org/2000/svg">
<path fill-rule="evenodd" clip-rule="evenodd" d="M17 1.41675C8.39371 1.41675 1.41663 8.39383 1.41663 17.0001C1.41663 25.6063 8.39371 32.5834 17 32.5834C25.6062 32.5834 32.5833 25.6063 32.5833 17.0001C32.5833 8.39383 25.6062 1.41675 17 1.41675ZM23.7546 14.3651C23.879 14.2229 23.9737 14.0573 24.0331 13.878C24.0926 13.6987 24.1155 13.5093 24.1007 13.321C24.0858 13.1327 24.0335 12.9492 23.9467 12.7814C23.8599 12.6136 23.7404 12.4649 23.5953 12.344C23.4502 12.2231 23.2824 12.1324 23.1017 12.0773C22.921 12.0221 22.7311 12.0037 22.5432 12.0231C22.3553 12.0424 22.1732 12.0992 22.0075 12.19C21.8419 12.2808 21.696 12.4038 21.5786 12.5517L15.487 19.8603L12.3349 16.7068C12.0677 16.4488 11.7098 16.306 11.3384 16.3092C10.9669 16.3124 10.6116 16.4614 10.349 16.7241C10.0863 16.9867 9.93731 17.3421 9.93409 17.7135C9.93086 18.085 10.0737 18.4428 10.3317 18.71L14.5817 22.96C14.7209 23.0991 14.8876 23.2077 15.071 23.2788C15.2545 23.35 15.4508 23.3821 15.6474 23.3732C15.844 23.3642 16.0366 23.3144 16.2129 23.227C16.3892 23.1395 16.5453 23.0162 16.6713 22.8651L23.7546 14.3651Z" fill="#0A6ABF"/>
</svg>
