<svg width="20" height="22" viewBox="0 0 20 22" fill="none" xmlns="http://www.w3.org/2000/svg">
<path d="M11.3285 13.2478V15.6182C11.3285 17.1107 10.1145 18.3217 8.62501 18.3217C7.13554 18.3217 5.92156 17.1077 5.92156 15.6182V13.3265C2.47337 13.9259 0 15.5395 0 17.4407C0 19.8505 3.97494 22 8.8793 22C13.7837 22 17.7586 19.8505 17.7586 17.4407C17.7556 15.4487 15.04 13.7685 11.3285 13.2478Z" fill="white"/>
<path d="M8.622 16.1481C9.17298 16.1481 9.618 15.703 9.618 15.152V0.996021C9.618 0.445037 9.17298 0 8.622 0C8.07101 0 7.62598 0.445037 7.62598 0.996021V15.152C7.62598 15.7 8.07404 16.1481 8.622 16.1481Z" fill="white"/>
<path d="M11.4133 0.92627V6.97499L19.3269 3.95062L11.4133 0.92627Z" fill="white"/>
</svg>
