<svg width="35" height="36" viewBox="0 0 35 36" fill="none" xmlns="http://www.w3.org/2000/svg">
<path d="M17.5 2.47363C21.5611 2.47363 25.4559 4.08691 28.3276 6.95856C31.1992 9.83021 32.8125 13.725 32.8125 17.7861C32.8125 21.8473 31.1992 25.7421 28.3276 28.6137C25.4559 31.4854 21.5611 33.0986 17.5 33.0986C13.4389 33.0986 9.54408 31.4854 6.67243 28.6137C3.80078 25.7421 2.1875 21.8473 2.1875 17.7861C2.1875 13.725 3.80078 9.83021 6.67243 6.95856C9.54408 4.08691 13.4389 2.47363 17.5 2.47363ZM16.1875 16.4736H11.1562C10.8082 16.4736 10.4743 16.6119 10.2282 16.8581C9.98203 17.1042 9.84375 17.438 9.84375 17.7861C9.84375 18.1342 9.98203 18.4681 10.2282 18.7142C10.4743 18.9604 10.8082 19.0986 11.1562 19.0986H16.1875V24.1299C16.1875 24.478 16.3258 24.8118 16.5719 25.058C16.8181 25.3041 17.1519 25.4424 17.5 25.4424C17.8481 25.4424 18.1819 25.3041 18.4281 25.058C18.6742 24.8118 18.8125 24.478 18.8125 24.1299V19.0986H23.8438C24.1918 19.0986 24.5257 18.9604 24.7718 18.7142C25.018 18.4681 25.1562 18.1342 25.1562 17.7861C25.1562 17.438 25.018 17.1042 24.7718 16.8581C24.5257 16.6119 24.1918 16.4736 23.8438 16.4736H18.8125V11.4424C18.8125 11.0943 18.6742 10.7604 18.4281 10.5143C18.1819 10.2682 17.8481 10.1299 17.5 10.1299C17.1519 10.1299 16.8181 10.2682 16.5719 10.5143C16.3258 10.7604 16.1875 11.0943 16.1875 11.4424V16.4736Z" fill="#0A6ABF"/>
</svg>
