<svg width="19" height="20" viewBox="0 0 19 20" fill="none" xmlns="http://www.w3.org/2000/svg">
<path d="M13.1538 8.75233C13.1538 7.34408 12.6533 6.13945 11.6523 5.13845C10.6513 4.13744 9.44671 3.63694 8.03846 3.63694C6.63021 3.63694 5.42558 4.13744 4.42458 5.13845C3.42358 6.13945 2.92308 7.34408 2.92308 8.75233C2.92308 10.1606 3.42358 11.3652 4.42458 12.3662C5.42558 13.3672 6.63021 13.8677 8.03846 13.8677C9.44671 13.8677 10.6513 13.3672 11.6523 12.3662C12.6533 11.3652 13.1538 10.1606 13.1538 8.75233ZM19 18.2523C19 18.6482 18.8554 18.9907 18.5661 19.28C18.2768 19.5692 17.9343 19.7139 17.5385 19.7139C17.1274 19.7139 16.7849 19.5692 16.5108 19.28L12.5944 15.3749C11.2318 16.3188 9.71314 16.7908 8.03846 16.7908C6.94992 16.7908 5.90895 16.5796 4.91557 16.1571C3.92218 15.7346 3.06581 15.1637 2.34645 14.4443C1.6271 13.725 1.05619 12.8686 0.633714 11.8752C0.211238 10.8818 0 9.84087 0 8.75233C0 7.66379 0.211238 6.62282 0.633714 5.62943C1.05619 4.63604 1.6271 3.77967 2.34645 3.06032C3.06581 2.34097 3.92218 1.77006 4.91557 1.34758C5.90895 0.925105 6.94992 0.713867 8.03846 0.713867C9.127 0.713867 10.168 0.925105 11.1614 1.34758C12.1547 1.77006 13.0111 2.34097 13.7305 3.06032C14.4498 3.77967 15.0207 4.63604 15.4432 5.62943C15.8657 6.62282 16.0769 7.66379 16.0769 8.75233C16.0769 10.427 15.605 11.9456 14.6611 13.3082L18.5775 17.2247C18.8592 17.5063 19 17.8489 19 18.2523Z" fill="white"/>
</svg>
