<svg width="65" height="82" viewBox="0 0 65 82" fill="none" xmlns="http://www.w3.org/2000/svg">
<path d="M27.04 25.1901C27.04 28.6001 29.81 31.3701 33.22 31.3701C36.63 31.3701 39.4001 28.6001 39.4001 25.1901C39.4001 21.7801 36.63 19.0101 33.22 19.0101C29.81 19.0101 27.04 21.7801 27.04 25.1901Z" fill="white"/>
<path d="M49.1899 14.1901C47.8999 13.5601 46.3299 14.0901 45.6999 15.3901L36.4798 34.2001C35.7898 33.9201 35.0298 33.7701 34.2298 33.7701H32.1999C31.3099 33.7701 30.4798 33.9601 29.7198 34.3001L19.6199 15.3101C18.9399 14.0401 17.3699 13.5501 16.0899 14.2301C14.8199 14.9101 14.3299 16.4901 15.0099 17.7601L26.2099 38.8201C26.1499 39.1501 26.1199 39.4901 26.1199 39.8401V51.6301C26.1199 52.3501 26.2498 53.0401 26.4798 53.6901L18.2499 77.6801C17.7199 79.2101 18.5399 80.8801 20.0699 81.4101C20.3899 81.5201 20.7099 81.5701 21.0199 81.5701C22.2399 81.5701 23.3799 80.8001 23.7999 79.5901L31.3299 57.6501C31.6099 57.6901 31.8999 57.7201 32.1899 57.7201H34.2198C34.4698 57.7201 34.7099 57.7001 34.9499 57.6701L42.4698 79.5901C42.8898 80.8101 44.0299 81.5701 45.2499 81.5701C45.5699 81.5701 45.8899 81.5201 46.1999 81.4101C47.7299 80.8801 48.5499 79.2101 48.0199 77.6801L39.8598 53.8901C40.1398 53.1901 40.2999 52.4301 40.2999 51.6401V39.8501C40.2999 39.4001 40.2498 38.9701 40.1598 38.5501L50.3799 17.6901C51.0199 16.3901 50.4899 14.8301 49.1899 14.1901Z" fill="white"/>
<path d="M46.5218 7.09491L45.3398 10.506L53.9668 13.4951L55.1487 10.0841L46.5218 7.09491Z" fill="white"/>
<path d="M58.69 6.89082L54.7305 18.3135L60.437 20.2916L64.3965 8.86891L58.69 6.89082Z" fill="white"/>
<path d="M39.7481 0.30666L35.791 11.7305L41.4982 13.7074L45.4553 2.28356L39.7481 0.30666Z" fill="white"/>
<path d="M18.4336 7.11167L9.80762 10.1027L10.9903 13.5134L19.6163 10.5224L18.4336 7.11167Z" fill="white"/>
<path d="M6.26284 6.87468L0.555664 8.85156L4.51272 20.2754L10.2199 18.2985L6.26284 6.87468Z" fill="white"/>
<path d="M25.2414 0.335133L19.5342 2.31262L23.4924 13.7365L29.1996 11.759L25.2414 0.335133Z" fill="white"/>
</svg>
