<svg width="19" height="30" viewBox="0 0 19 30" fill="none" xmlns="http://www.w3.org/2000/svg">
<path fill-rule="evenodd" clip-rule="evenodd" d="M9.5 0.425293C9.77991 0.425293 10.0484 0.534049 10.2463 0.727637C10.4442 0.921225 10.5554 1.18379 10.5554 1.45756V25.8046L17.196 19.3075C17.3942 19.1137 17.663 19.0048 17.9433 19.0048C18.2235 19.0048 18.4923 19.1137 18.6905 19.3075C18.8887 19.5014 19 19.7643 19 20.0384C19 20.3125 18.8887 20.5754 18.6905 20.7692L10.2472 29.0274C10.1492 29.1235 10.0327 29.1998 9.9045 29.2518C9.77628 29.3039 9.63882 29.3307 9.5 29.3307C9.36118 29.3307 9.22372 29.3039 9.0955 29.2518C8.96728 29.1998 8.85081 29.1235 8.75277 29.0274L0.309512 20.7692C0.111335 20.5754 -6.60327e-09 20.3125 0 20.0384C6.60327e-09 19.7643 0.111335 19.5014 0.309512 19.3075C0.507689 19.1137 0.776476 19.0048 1.05674 19.0048C1.33701 19.0048 1.60579 19.1137 1.80397 19.3075L8.44459 25.8046V1.45756C8.44459 1.18379 8.55579 0.921225 8.75372 0.727637C8.95164 0.534049 9.22009 0.425293 9.5 0.425293Z" fill="white"/>
</svg>
