<svg width="512" height="228" viewBox="0 0 512 228" fill="none" xmlns="http://www.w3.org/2000/svg">
<path d="M5.92369 38.3847C3.97701 37.8898 3.33953 38.2341 2.62698 40.1831C1.54895 43.1318 2.13672 47.1359 2.37731 50.0776C3.78995 67.3505 11.8981 83.3198 23.4627 96.1285C30.6556 104.095 38.9859 108.738 48.401 113.435C49.0342 113.75 54.5992 117.599 55.4824 117.105C57.099 116.2 52.4671 114.821 51.4765 113.259" stroke="white" stroke-width="3" stroke-linecap="round"/>
<path d="M21.0909 116.517C20.7003 116.52 16.4101 117.153 18.407 117.476C22.8334 118.192 27.1288 119.757 31.5258 120.657C39.2326 122.235 56.7272 128.378 64.5186 123.886C64.8771 123.68 63.6982 123.761 63.2845 123.745C61.4869 123.672 60.9455 123.133 60.4133 121.302C56.2232 106.885 53.4657 91.8006 50.2139 77.1454C49.5955 74.3584 49.0082 63.1761 50.2111 72.1317C51.1923 79.4379 51.4286 86.8994 51.9048 94.2451C51.978 95.3736 51.9714 116.608 53.7291 117.204C54.1177 117.336 53.9381 116.406 53.9504 115.997C54.0459 112.813 53.7029 107.967 53.4624 105.059C52.875 97.9554 52.1704 90.7967 51.0849 83.7483C50.9686 82.9933 51.154 82.056 50.6253 81.503C49.203 80.0154 50.32 85.6073 50.3529 87.662C50.5059 97.2278 50.3894 107.514 52.4183 116.913C54.8592 128.22 52.5156 93.7273 51.1842 82.2383C49.8435 70.6691 55.1064 105.36 59.3182 116.223C59.787 117.432 60.7997 118.757 58.9182 118.587C53.6096 118.106 48.4144 117.429 43.0644 117.204C36.3966 116.923 29.7239 116.757 23.0542 116.528C19.1538 116.394 11.733 117.331 8.18205 114.984C6.16447 113.651 13.0348 115.269 15.3996 115.785C25.5785 118.003 35.3318 118.978 45.771 118.593C46.1952 118.577 65.3069 116.306 60.5665 118.96" stroke="white" stroke-width="3" stroke-linecap="round"/>
<path d="M303.882 51.0114C303.903 49.9617 304.212 48.1055 305.247 47.5753C309.27 45.5152 303.79 56.6252 301.726 60.6368C296.949 69.9229 281.612 97.1198 285.442 87.4073C290.003 75.8375 294.421 61.9296 301.243 51.512C307.107 42.5577 294.182 71.8624 288.706 81.0575C286.974 83.9657 285.914 85.0955 287.44 81.2098C290.487 73.4465 294.304 65.8932 298.063 58.4549C305.583 43.5727 297.019 64.046 296.502 65.2509C292.921 73.5844 289.109 86.6732 282.27 93.2239C278.035 97.2803 293.09 88.6478 298.347 86.0361C307.4 81.5379 334.589 68.1226 325.708 72.9501C314.43 79.0805 302.416 83.8146 291.299 90.2639C276.121 99.0691 323.638 75.3805 336.801 63.7927" stroke="white" stroke-width="3" stroke-linecap="round"/>
<path d="M347.609 4.58748C347.832 3.7159 348.823 -0.410586 348.341 2.91706C346.705 14.2048 339.321 26.1975 333.547 35.7381C326.7 47.0517 318.009 57.5985 309.401 67.6233C307.984 69.274 287.088 90.8822 285.223 89.0233C284.914 88.7149 283.5 88.8416 285.556 88.7186" stroke="white" stroke-width="3" stroke-linecap="round"/>
<path d="M62.4498 210.41C60.0937 208.927 66.3429 210.621 67.3193 210.579C96.5217 209.303 125.847 204.668 154.91 201.802C185.374 198.798 215.889 196.037 246.48 194.696C257.591 194.209 271.631 192.239 282.69 195.022C285.591 195.752 276.753 195.829 273.765 195.964" stroke="white" stroke-width="3" stroke-linecap="round"/>
<path d="M85.2469 226.129C84.7425 220.852 231.401 209.411 252.638 208.647" stroke="white" stroke-width="3" stroke-linecap="round"/>
<path d="M294.302 128.727C294.119 127.489 293.561 123.798 293.546 125.049C293.269 147.005 295.358 169.391 297.806 191.151C298.502 197.335 300.259 203.157 301.093 209.229C301.311 210.818 302.805 208.472 303.664 208.234C305.852 207.627 308.233 205.417 310.128 204.327C315.91 200.998 321.823 197.947 328.006 195.523" stroke="white" stroke-width="3" stroke-linecap="round"/>
<path d="M332.428 180.734C330.025 184.829 333.641 180.815 334.516 178.625C336.787 172.945 332.689 170.534 329.917 176.841C328.584 179.872 327.857 184.102 330.615 186.624C335.529 191.116 341.786 183.126 345.202 180.636" stroke="white" stroke-width="3" stroke-linecap="round"/>
<path d="M341.37 120.549C340.855 119.604 339.043 116.901 339.181 118.669C340.377 134.069 343.533 149.478 346.998 164.503C347.815 168.046 351.281 178.363 349.771 175.053" stroke="white" stroke-width="3" stroke-linecap="round"/>
<path d="M341.173 162.713C340.387 162.379 337.938 162.138 337.794 161.037C337.264 156.975 356.38 147.006 357.976 145.916" stroke="white" stroke-width="3" stroke-linecap="round"/>
<path d="M361.858 127.16C358.886 118.82 360.831 139.487 360.924 140.872" stroke="white" stroke-width="3" stroke-linecap="round"/>
<path d="M367.311 156.983C368.036 158.202 373.134 155.797 369.833 153.414C369.033 152.836 368.389 153.49 367.784 154.08C364.117 157.656 364.279 161.183 366.435 165.798C369.331 171.995 372.759 176.114 368.54 182.927C367.784 184.146 361.798 187.896 362.988 186.512" stroke="white" stroke-width="3" stroke-linecap="round"/>
<path d="M419.882 144.251C418.565 137.633 415.223 142.683 412.22 146.963C401.55 162.174 392.616 180.862 390.482 199.473C389.435 208.61 390.269 224.98 403.256 224.307C418.101 223.537 432.276 201.475 412.267 196.747C405.967 195.259 411.151 194.418 415.149 193.211C418.735 192.128 422.419 191.56 425.974 190.43" stroke="white" stroke-width="3" stroke-linecap="round"/>
<path d="M444.732 179.437C443.374 177.512 441.895 178.418 441.108 180.448C438.861 186.239 444.385 197.651 449.779 189.006C451.479 186.282 450.932 181.749 446.989 181.474C444.828 181.322 443.032 182.302 441.469 183.664C437.727 186.926 441.454 185.309 441.937 186.707" stroke="white" stroke-width="3" stroke-linecap="round"/>
<path d="M487.879 125.681C487.831 124.726 487.473 122.71 488.083 121.841C488.687 120.98 487.933 123.939 487.758 124.975C486.098 134.755 483.7 144.385 481.333 154.013C479.326 162.179 476.661 170.53 475.724 178.932C475.547 180.516 476.048 178.067 476.132 177.74" stroke="white" stroke-width="3" stroke-linecap="round"/>
<path d="M468.97 212.518C468.242 212.608 470.537 208.317 469.773 208.166C468.75 207.963 466.636 211.17 467.63 211.304C468.009 211.356 470.678 209.697 468.839 210.124" stroke="white" stroke-width="3" stroke-linecap="round"/>
<path d="M509.671 123.113C508.642 123.784 508.216 125.921 507.783 126.987C501.975 141.296 496.85 155.903 491.712 170.461C491.247 171.78 486.833 180.888 490.281 175.694" stroke="white" stroke-width="3" stroke-linecap="round"/>
<path d="M484.866 199.895C483.799 199.93 484.539 198.238 484.769 197.554C485.376 195.75 485.647 197.574 484.822 198.372" stroke="white" stroke-width="3" stroke-linecap="round"/>
</svg>
